<?xml version="1.0" encoding="UTF-8" standalone="no"?>
<!-- Svg Vector Icons : http://www.onlinewebfonts.com/icon -->

<svg
        xmlns:dc="http://purl.org/dc/elements/1.1/"
        xmlns:cc="http://creativecommons.org/ns#"
        xmlns:rdf="http://www.w3.org/1999/02/22-rdf-syntax-ns#"
        xmlns:sodipodi="http://sodipodi.sourceforge.net/DTD/sodipodi-0.dtd"
        xmlns:inkscape="http://www.inkscape.org/namespaces/inkscape"
        xmlns="http://www.w3.org/2000/svg"
        version="1.1"
        x="0px"
        y="0px"
        viewBox="0 0 1000 1000"
        enable-background="new 0 0 1000 1000"
        xml:space="preserve"
        id="svg14"
        sodipodi:docname="administration.svg"
        inkscape:version="0.92.4 (unknown)"><defs
   id="defs18" />
    <sodipodi:namedview
            pagecolor="#ffffff"
            bordercolor="#666666"
            borderopacity="1"
            objecttolerance="10"
            gridtolerance="10"
            guidetolerance="10"
            inkscape:pageopacity="0"
            inkscape:pageshadow="2"
            inkscape:window-width="874"
            inkscape:window-height="480"
            id="namedview16"
            showgrid="false"
            inkscape:zoom="0.236"
            inkscape:cx="500"
            inkscape:cy="500"
            inkscape:window-x="1805"
            inkscape:window-y="316"
            inkscape:window-maximized="0"
            inkscape:current-layer="svg14"/>
    <metadata
            id="metadata2"> Svg Vector Icons : http://www.onlinewebfonts.com/icon <rdf:RDF><cc:Work
     rdf:about=""><dc:format>image/svg+xml</dc:format><dc:type
            rdf:resource="http://purl.org/dc/dcmitype/StillImage"/></cc:Work></rdf:RDF></metadata>
    <g
            id="g12"
            style="fill:#e59728"><g
     transform="translate(0.000000,512.000000) scale(0.100000,-0.100000)"
     id="g10"
     style="fill:#e59728"><path
       d="M4131.1,4999.1c-595.2-111-1087-562.6-1245.8-1146.3c-47.8-174.2-47.8-610.5,0-784.6c116.7-436.3,424.9-809.5,824.8-1004.7c258.4-126.3,375.1-151.2,688.9-151.2c315.8,0,432.5,24.9,688.9,153.1c1083.2,535.8,1171.2,2040,156.9,2702.2C4929.2,4974.3,4490.9,5064.2,4131.1,4999.1z"
       id="path4"
       style="fill:#e59728" /><path
            d="M2408.8,1192.7c-191.4-44-317.7-91.9-472.7-178c-457.4-258.3-792.3-750.2-912.8-1347.3C985-518.1,983-585.1,983-2010.8v-1485h612.4h612.4v1349.2v1349.2h172.2h172.2v-1349.2v-1349.2h815.3h815.2l-9.6,42.1c-21.1,84.2-223.9,1265-220.1,1268.8c3.8,1.9,137.8,80.4,298.5,172.2c158.8,91.9,290.9,176.1,290.9,185.6c0,9.6-65.1,137.8-143.5,285.1l-143.5,267.9l505.2,558.8c277.5,308.1,518.6,572.2,535.9,585.6c26.8,23,67,13.4,289-74.6c141.6-55.5,262.2-97.6,267.9-91.9c5.7,5.7,47.8,111,93.8,237.3l84.2,227.7l786.6,5.7l786.5,3.8L7549,291.4c-74.6,147.4-267.9,400-380.8,501.4c-202.9,178-407.6,294.7-667.9,375.1l-168.4,53.6l-1885,3.8C2680.5,1229.1,2552.3,1225.3,2408.8,1192.7z"
            id="path6"
            style="fill:#e59728"/><path
            d="M6274.5-621.5C6215.2-788,6159.7-935.3,6152-946.8c-9.6-15.3-107.2,15.3-317.7,101.4c-166.5,68.9-321.5,130.1-344.5,135.9c-34.5,7.7-86.1-40.2-298.5-273.7c-141.6-156.9-271.7-302.4-292.8-325.3c-34.5-42.1-32.5-45.9,130.1-352.1c118.6-225.8,160.7-323.4,153.1-355.9c-9.6-30.6-91.9-88-313.9-216.3c-164.6-95.7-315.8-183.7-333-197.1c-30.6-23-28.7-51.7,42.1-449.7c40.2-233.5,78.5-428.7,82.3-432.5c3.8-5.7,162.7-36.4,350.2-68.9c334.9-59.3,392.3-80.4,392.3-143.5c0-9.6-23-183.7-51.7-384.6l-53.6-367.4l378.9-202.9c208.6-111,388.5-202.9,398.1-202.9c9.6,0,132.1,103.3,271.7,229.6c178,160.8,267.9,229.6,302.4,229.6c36.4,1.9,109.1-61.2,315.8-277.5l267.9-279.4l392.3,176.1c216.2,95.7,398,179.9,403.8,187.6c7.7,5.7,1.9,166.5-13.4,355.9c-34.5,449.7-68.9,411.5,422.9,459.3l373.2,36.4l19.1,67c59.3,216.2,191.4,775.1,187.5,790.4c-3.8,11.5-135.9,107.2-292.8,212.4c-208.6,141.6-289,206.7-292.8,239.2c-3.8,28.7,61.3,151.2,197.1,367.4l204.8,323.4l-264.1,336.8c-143.5,185.6-269.8,340.6-277.5,346.4c-9.6,5.7-166.5-38.3-352.1-97.6c-254.5-82.3-342.6-103.3-369.4-88c-24.9,13.4-80.4,141.6-168.4,384.7l-132.1,363.6h-442.1h-444L6274.5-621.5z M6978.8-1610.9c373.2-78.5,673.6-392.3,742.5-777c49.8-279.4-42.1-589.4-235.4-794.2c-204.8-218.2-419.1-313.9-702.3-313.9c-442.1,0-796.1,260.3-924.3,675.5c-32.5,109.1-38.3,166.5-30.6,329.2c7.6,176.1,15.3,210.5,78.5,342.5C6106.1-1729.5,6532.9-1515.2,6978.8-1610.9z"
            id="path8"
            style="fill:#e59728"/></g></g>
</svg>
