<?xml version="1.0" encoding="UTF-8" standalone="no"?>
<!-- Generator: Adobe Illustrator 19.0.0, SVG Export Plug-In . SVG Version: 6.00 Build 0)  -->

<svg
        xmlns:dc="http://purl.org/dc/elements/1.1/"
        xmlns:cc="http://creativecommons.org/ns#"
        xmlns:rdf="http://www.w3.org/1999/02/22-rdf-syntax-ns#"
        xmlns:sodipodi="http://sodipodi.sourceforge.net/DTD/sodipodi-0.dtd"
        xmlns:inkscape="http://www.inkscape.org/namespaces/inkscape"
        xmlns="http://www.w3.org/2000/svg"
        version="1.1"
        id="Capa_1"
        x="0px"
        y="0px"
        viewBox="0 0 512 512"
        style="enable-background:new 0 0 512 512;"
        xml:space="preserve"
        sodipodi:docname="login.svg"
        inkscape:version="0.92.4 (unknown)"><metadata
   id="metadata45"><rdf:RDF><cc:Work
       rdf:about=""><dc:format>image/svg+xml</dc:format><dc:type
        rdf:resource="http://purl.org/dc/dcmitype/StillImage"/></cc:Work></rdf:RDF></metadata>
    <defs
            id="defs43"/>
    <sodipodi:namedview
            pagecolor="#ffffff"
            bordercolor="#666666"
            borderopacity="1"
            objecttolerance="10"
            gridtolerance="10"
            guidetolerance="10"
            inkscape:pageopacity="0"
            inkscape:pageshadow="2"
            inkscape:window-width="874"
            inkscape:window-height="480"
            id="namedview41"
            showgrid="false"
            inkscape:zoom="0.4609375"
            inkscape:cx="256"
            inkscape:cy="238.64407"
            inkscape:window-x="1379"
            inkscape:window-y="293"
            inkscape:window-maximized="0"
            inkscape:current-layer="Capa_1"/>
    <path
            style="fill:#546E7A;"
            d="M415.344,276.885c-41.237,0-74.667,33.429-74.667,74.667v21.333c0,5.891,4.776,10.667,10.667,10.667  c5.891,0,10.667-4.776,10.667-10.667v-21.333c0-29.455,23.878-53.333,53.333-53.333s53.333,23.878,53.333,53.333v21.333  c0,5.891,4.776,10.667,10.667,10.667c5.891,0,10.667-4.776,10.667-10.667v-21.333C490.011,310.315,456.581,276.885,415.344,276.885z  "
            id="path2"/>
    <path
            style="fill:#FFC107;"
            d="M330.011,362.219h170.667c5.891,0,10.667,4.776,10.667,10.667v128  c0,5.891-4.776,10.667-10.667,10.667H330.011c-5.891,0-10.667-4.776-10.667-10.667v-128  C319.344,366.994,324.119,362.219,330.011,362.219z"
            id="path4"/>
    <path
            style="fill:#000000"
            d="M298.011,500.885v-128c0.071-13.857,9.053-26.093,22.251-30.315c0.831-7.664,2.586-15.2,5.227-22.443  c-1.826-5.58-3.252-11.284-4.267-17.067c17.488-14.505,28.744-35.168,31.445-57.728c-0.379-3.847,0.529-7.711,2.581-10.987  c3.326-0.833,6.049-3.215,7.317-6.4c6.153-14.868,10.009-30.586,11.435-46.613c-0.001-0.87-0.108-1.737-0.32-2.581  c-1.53-6.226-5.19-11.721-10.347-15.531v-56.555C361.001,48.75,314.583,2.332,256.667,0C198.75,2.332,152.332,48.75,150,106.667  v56.555c-5.156,3.81-8.817,9.305-10.347,15.531c-0.212,0.844-0.319,1.711-0.32,2.581c1.424,16.035,5.28,31.76,11.435,46.635  c0.924,3.015,3.347,5.334,6.4,6.123c1.173,0.597,3.413,3.691,3.413,11.243c2.713,22.588,14.001,43.27,31.531,57.771  c-2.133,13.973-12.651,50.816-34.901,60.117L62.64,394.667c-24.292,8.034-42.747,27.995-48.853,52.843l-12.8,51.2  c-1.449,5.71,2.005,11.514,7.715,12.963c0.86,0.218,1.744,0.328,2.632,0.328h288.768  C298.743,508.451,298.035,504.686,298.011,500.885z"
            id="path6"/>
    <path
            style="fill:#FAFAFA;"
            d="M436.677,426.219c0-11.782-9.551-21.333-21.333-21.333c-11.782,0-21.333,9.551-21.333,21.333  c0.095,7.484,4.156,14.355,10.667,18.048v13.952c0,5.891,4.776,10.667,10.667,10.667c5.891,0,10.667-4.776,10.667-10.667v-13.952  C432.521,440.574,436.582,433.703,436.677,426.219z"
            id="path8"/>
    <g
            id="g10">
</g>
    <g
            id="g12">
</g>
    <g
            id="g14">
</g>
    <g
            id="g16">
</g>
    <g
            id="g18">
</g>
    <g
            id="g20">
</g>
    <g
            id="g22">
</g>
    <g
            id="g24">
</g>
    <g
            id="g26">
</g>
    <g
            id="g28">
</g>
    <g
            id="g30">
</g>
    <g
            id="g32">
</g>
    <g
            id="g34">
</g>
    <g
            id="g36">
</g>
    <g
            id="g38">
</g>
</svg>
