<?xml version="1.0" encoding="UTF-8"?>
<svg xmlns:cc="http://creativecommons.org/ns#" xmlns:dc="http://purl.org/dc/elements/1.1/"
     xmlns:rdf="http://www.w3.org/1999/02/22-rdf-syntax-ns#" enable-background="new 0 0 187.338 187.338" version="1.1"
     viewBox="0 0 187.338 187.338" xml:space="preserve" xmlns="http://www.w3.org/2000/svg"><metadata><rdf:RDF><cc:Work rdf:about=""><dc:format>image/svg+xml</dc:format><dc:type
        rdf:resource="http://purl.org/dc/dcmitype/StillImage"/></cc:Work></rdf:RDF></metadata>
    <g fill="#e59728">
	<g fill="#e59728">
		<path d="m125.39 95.594c-1.629-1.183-4.344 0.387-4.153 2.383 0.652 6.86 1.787 13.168 1.565 20.185-0.251 7.964-1.063 15.911-1.226 23.877-14.855 0.447-29.671-0.884-44.524-0.893 0.548-32.136 0.552-64.361 0.547-96.382 0-2.468-2.462-3.305-4.204-2.567-7e-3 -9e-3 -9e-3 -0.019-0.016-0.028-6.534-8.158-20.93-12.415-30.032-17.155-10.284-5.356-20.33-11.38-28.984-19.109 15.627 1.086 31.122 3.332 46.744 4.475 20.147 1.476 40.181-2.192 60.287 0.449 0.518 6.438 0.365 12.828-0.014 19.278-0.349 5.936-1.441 12.691 0.889 18.304 1.24 2.988 5.073 2.447 5.488-0.743 0.849-6.529 0.191-13.542 0.533-20.172 0.301-5.837 0.205-11.53-1.437-17.124 1.855-1.582 2.002-4.969-1.022-5.523-17.917-3.283-36.129-1.422-54.217-1.02-20.679 0.459-41.146-5.489-61.785-3.07-0.165 0.019-0.287 0.09-0.434 0.131-0.927-1.052-2.815-1.014-3.527 0.748-9.284 23.017-5.076 49.963-3.882 74.09 1.189 24.004-2.432 48.698 3.473 72.267 0.334 1.331 1.294 1.836 2.277 1.791 16.22 17.971 41.909 25.269 62.465 36.951 1.38 0.784 2.673 0.392 3.536-0.462 1.089 0.029 2.159-0.679 2.215-2.184 0.469-12.607 0.787-25.254 1.027-37.913 15.939 2.026 31.894 3.255 47.981 2.666 1.931-0.071 3.39-1.52 3.453-3.454 0.336-9.966 1.327-19.894 1.514-29.866 0.116-5.994 0.97-15.934-4.537-19.93zm-91.243-68.872c11.063 6.375 24.699 15.941 36.992 19.295 0.197 0.054 0.373 0.051 0.553 0.061-0.014 1.85-0.069 3.715-0.113 5.575-7.436-7.919-18.397-13.08-27.733-18.077-12.09-6.472-24.151-12.336-35.206-20.547 0.195-1.863 0.379-3.724 0.635-5.595 6.425 8.392 15.677 13.99 24.872 19.288zm-26.826 24.516c21.446 9.495 42.479 19.029 61.443 33.057 0.655 0.485 1.36 0.408 1.942 0.066-0.11 3.016-0.222 6.032-0.333 9.051-20.922-12.352-42.441-23.565-62.932-36.711-0.047-1.825-0.086-3.644-0.12-5.463zm0.19 8.152c19.922 13.94 40.71 27.935 62.701 38.383-0.044 1.224-0.091 2.446-0.135 3.671-19.588-13.637-40.201-25.861-61.765-36.111-0.225-0.107-0.439-0.098-0.629-0.038-0.06-1.974-0.117-3.941-0.172-5.905zm0.486 16.334c-0.082-2.952-0.173-5.887-0.264-8.812 21.234 11.539 41.176 24.927 61.032 38.668 0.404 0.279 0.792 0.345 1.161 0.326-0.067 1.998-0.145 3.994-0.205 5.992-20.196-12.263-41.146-23.372-61.708-35.008-0.01-0.39-7e-3 -0.777-0.016-1.166zm0.046 3.247c20.365 12.666 40.318 26.282 61.537 37.479-0.025 0.942-0.065 1.885-0.087 2.827-20.348-11.091-41.51-20.35-61.335-32.464-0.014-2.61-0.065-5.227-0.115-7.842zm0.13 15.702c3e-3 -1.933-6e-3 -3.868-0.012-5.802 18.836 13.744 39.992 25.258 61.215 34.763-0.016 0.787-0.05 1.576-0.063 2.363-18.91-12.995-42.184-18.181-61.14-31.324zm61.09 35.74c-0.02 1.792-0.055 3.586-0.061 5.377-18.427-13.134-40.962-21.228-60.778-31.947-0.09-0.049-0.176-0.06-0.263-0.082 2e-3 -2.277 4e-3 -4.56 9e-3 -6.838 18.247 14.391 41.536 21.006 61.093 33.49zm-61.105-24.3c19.908 11.609 40.451 23.03 61.07 33.3 7e-3 3.096 0.01 6.191 0.069 9.281-17.275-15.029-41.408-20.417-61.05-31.812-0.065-3.588-0.084-7.178-0.089-10.769zm0.371 20.709c-0.129-2.669-0.165-5.338-0.226-8.008 19.454 13.142 42.913 19.459 61.147 34.445 0.088 3.045 0.151 6.094 0.303 9.13-7.177-6.963-19.645-11.459-27.82-15.807-6.886-3.662-13.787-7.301-20.613-11.072-2.491-1.377-12.221-5.467-12.788-8.685-1e-3 -1e-3 -3e-3 -1e-3 -3e-3 -3e-3zm0.246 4.224c4.503 5.154 16.964 10.73 19.459 12.164 13.767 7.913 27.702 16.472 41.762 23.762 0.146 2.371 0.307 4.738 0.499 7.103-13.046-7.478-26.073-15.375-38.38-23.961-6.087-4.246-14.773-13.3-22.979-13.956-0.149-1.706-0.251-3.409-0.361-5.112zm1.537 15.99c-1e-3 -0.132 0.036-0.248 0.016-0.387-0.368-2.51-0.649-5.021-0.908-7.529 19.462 14.265 40.189 27.678 61.438 39.104 0.06 0.642 0.104 1.287 0.169 1.929-20.074-11.575-41.601-19.749-60.715-33.117zm60.528-66.38c-18.105-15.408-41.557-23.367-63.551-31.57-0.057-3.758-0.066-7.508-0.028-11.257 17.717 16.171 41.803 25.369 63.85 34.234-0.091 2.866-0.169 5.724-0.271 8.593zm0.417-13.178c-21.667-9.961-44.947-16.633-63.552-32.201-0.122-0.102-0.251-0.166-0.381-0.211 0.055-3.044 0.169-6.091 0.316-9.14 11.434 8.338 23.643 15.322 36.084 22.069 3.103 1.683 22.356 13.161 27.657 13.339-0.051 2.052-0.064 4.09-0.124 6.144zm-12.684-16.198c-17.548-7.135-35.198-17.018-50.803-27.815 0.154-2.663 0.347-5.331 0.593-8.004 9.424 7.264 19.688 13.28 29.918 19.337 11.443 6.774 21.946 14.825 33.198 21.744-1e-3 0.025-1e-3 0.05-2e-3 0.075-3.942-2.477-9.335-3.887-12.904-5.337z"/>
        <path d="m186.67 67.146c1e-3 -0.265-0.047-0.542-0.156-0.827-2.648-6.908-11.393-11.621-17.345-15.427-7.979-5.102-16.516-9.296-25.331-12.745-1.145-0.448-1.922 0.29-2.141 1.224-1.102 0.211-2.082 0.907-2.326 2.146-0.893 4.533-0.5 9.896 0.111 14.831-3.729-0.728-8.163-0.393-10.825-0.419-9.845-0.096-20.042 0.211-29.815 1.468-1.29 0.166-2.022 1.404-1.794 2.425-0.041 0.14-0.103 0.261-0.12 0.422-0.484 4.515-0.821 9.043-0.843 13.586-0.013 2.87-0.267 6.711 1.239 9.323-0.312 0.253-0.656 0.461-0.933 0.764-0.272 0.3-0.281 0.731 0 1.029 4.491 4.77 13.291 2.335 19.231 1.977 8.359-0.505 17.362-0.525 25.682-2.127-0.439 2.177-0.244 4.681-0.393 6.783-0.227 3.216-0.579 6.422-0.763 9.644-0.204 3.562 4.549 4.038 6.004 1.469 0.036-1e-3 0.062 0.017 0.098 0.015 17.658-1.079 31.463-18.599 40.526-32.122 0.868-1.296 0.641-2.549-0.106-3.439zm-22.811-11.991c5.979 3.706 11.047 9.07 16.828 12.889-0.536 0.775-1.136 1.575-1.696 2.362-11.289-7.171-21.724-15.591-33.163-22.517 2e-3 -1.423-0.04-2.831-0.189-4.186 5.956 3.996 12.126 7.675 18.22 11.452zm-61.293 25.747c0.103-1.621-0.149-3.333-0.358-4.983 1.374 1.139 2.717 2.315 4.123 3.414 0.486 0.38 0.991 0.783 1.492 1.181-1.789 0.018-3.581 0.087-5.257 0.388zm13.057-0.448c-0.892 0.062-1.86 0.072-2.859 0.07-1.279-0.798-2.581-1.571-3.791-2.421-2.426-1.706-4.756-3.543-7.068-5.401-0.212-3.068-0.521-6.133-0.835-9.195 5.711 6.068 12.39 11.976 19.356 16.516-1.614 0.165-3.22 0.321-4.803 0.431zm9.301-0.914c-0.066-0.074-0.113-0.156-0.2-0.221-7.742-5.911-15.636-11.344-23.14-17.55 2.024 0.357 4.109 0.528 6.209 0.633 3.713 3.412 7.458 6.784 11.317 10.032 2.376 2 5.375 5.018 8.517 6.822-0.901 0.095-1.804 0.185-2.703 0.284zm7.644-0.724c-0.01-0.012-6e-3 -0.024-0.017-0.035-2.799-3.077-7.259-5.215-10.62-7.671-3.801-2.777-7.5-5.695-11.193-8.616 1.811 0.024 3.621-2e-3 5.412-0.036 0.047 0.172 0.129 0.342 0.297 0.499 5.914 5.538 12.161 10.686 18.482 15.748-0.786 0.042-1.57 0.052-2.361 0.111zm14.308 18.098c0.149-2.632 0.227-5.931-0.099-8.766 2.528 2.018 5.042 4.055 7.533 6.117-2.369 1.166-4.841 2.081-7.434 2.649zm10.773-4.501c-3.705-3.569-7.665-6.812-11.733-9.917 0.469-1.554-0.58-3.564-2.569-3.744-0.846-0.077-1.712-0.06-2.566-0.091-7.275-5.302-14.697-10.42-21.571-16.259 0.988-0.021 1.993-0.046 2.956-0.058 1.717-0.022 3.433-0.012 5.148 7e-3 9.618 10.466 21.054 19.909 32.095 28.856-0.586 0.404-1.158 0.834-1.76 1.206zm4.345-3.094c-8.965-10.214-21.072-17.636-31.14-26.888 1.225 0.035 2.449 0.057 3.676 0.116 2.118 0.101 4.368 0.81 6.542 1.057 4.943 3.155 9.655 6.604 14.208 10.363 2.534 2.093 4.987 4.29 7.414 6.507 1.485 1.357 2.919 3.208 4.856 3.861-1.77 1.776-3.618 3.457-5.556 4.984zm7.361-6.866c-1.457-4.3-8.836-8.642-12.058-11.102-3.845-2.936-7.915-6.063-12.307-8.417 0.669-0.567 1.057-1.41 0.708-2.371-0.191-0.526-0.475-0.976-0.795-1.391 0.069-0.505 0.13-1.041 0.197-1.558 3.904 3.839 7.914 7.588 11.91 11.32 3.805 3.553 8.819 9.593 14.105 10.738 0.338 0.073 0.657-0.054 0.919-0.248-0.872 1.024-1.758 2.042-2.679 3.029zm2.987-4.373c-2.979-4.526-9.089-7.718-13.218-11.257-4.603-3.944-8.995-8.174-13.688-12.014 0.143-1.361 0.244-2.741 0.317-4.119 10.475 7.418 20.229 15.841 30.978 22.863-1.391 1.852-2.85 3.705-4.38 5.515 0.163-0.293 0.22-0.64-9e-3 -0.988z"/>
	</g>
</g>
</svg>

