<?xml version="1.0" encoding="UTF-8" standalone="no"?>
<!-- Generator: Adobe Illustrator 19.0.0, SVG Export Plug-In . SVG Version: 6.00 Build 0)  -->

<svg
        xmlns:dc="http://purl.org/dc/elements/1.1/"
        xmlns:cc="http://creativecommons.org/ns#"
        xmlns:rdf="http://www.w3.org/1999/02/22-rdf-syntax-ns#"
        xmlns:sodipodi="http://sodipodi.sourceforge.net/DTD/sodipodi-0.dtd"
        xmlns:inkscape="http://www.inkscape.org/namespaces/inkscape"
        xmlns="http://www.w3.org/2000/svg"
        version="1.1"
        id="Capa_1"
        x="0px"
        y="0px"
        viewBox="0 0 476.737 476.737"
        style="enable-background:new 0 0 476.737 476.737;"
        xml:space="preserve"
        sodipodi:docname="menu_icon.svg"
        inkscape:version="0.92.4 (unknown)"><metadata
   id="metadata53"><rdf:RDF><cc:Work
       rdf:about=""><dc:format>image/svg+xml</dc:format><dc:type
        rdf:resource="http://purl.org/dc/dcmitype/StillImage"/></cc:Work></rdf:RDF></metadata>
    <defs
            id="defs51"/>
    <sodipodi:namedview
            pagecolor="#ffffff"
            bordercolor="#666666"
            borderopacity="1"
            objecttolerance="10"
            gridtolerance="10"
            guidetolerance="10"
            inkscape:pageopacity="0"
            inkscape:pageshadow="2"
            inkscape:window-width="874"
            inkscape:window-height="480"
            id="namedview49"
            showgrid="false"
            inkscape:zoom="0.49503185"
            inkscape:cx="238.3685"
            inkscape:cy="222.20792"
            inkscape:window-x="1765"
            inkscape:window-y="224"
            inkscape:window-maximized="0"
            inkscape:current-layer="Capa_1"/>
    <g
            id="g16"
            style="fill:#e59728">
	<g
            id="g14"
            style="fill:#e59728">
		<g
                id="g12"
                style="fill:#e59728">
			<g
                    id="g10"
                    style="fill:#e59728">
				<path
                        style="fill:#e59728"
                        d="M238.369,0C106.726,0,0,106.726,0,238.369c0,131.675,106.726,238.369,238.369,238.369      c131.675,0,238.369-106.694,238.369-238.369C476.737,106.726,370.043,0,238.369,0z M238.369,444.955      c-113.908,0-206.586-92.678-206.586-206.586S124.46,31.782,238.369,31.782s206.586,92.678,206.586,206.586      S352.277,444.955,238.369,444.955z"
                        id="path2"/>
                <path
                        style="fill:#e59728"
                        d="M365.499,222.477h-254.26c-8.772,0-15.891,7.119-15.891,15.891      c0,8.74,7.119,15.891,15.891,15.891h254.26c8.74,0,15.891-7.151,15.891-15.891C381.39,229.597,374.239,222.477,365.499,222.477z      "
                        id="path4"/>
                <path
                        style="fill:#e59728"
                        d="M365.499,127.13h-254.26c-8.772,0-15.891,7.119-15.891,15.891      c0,8.772,7.119,15.891,15.891,15.891h254.26c8.74,0,15.891-7.119,15.891-15.891C381.39,134.249,374.239,127.13,365.499,127.13z"
                        id="path6"/>
                <path
                        style="fill:#e59728"
                        d="M365.499,317.825h-254.26c-8.772,0-15.891,7.151-15.891,15.891      c0,8.74,7.119,15.891,15.891,15.891h254.26c8.74,0,15.891-7.151,15.891-15.891C381.39,324.976,374.239,317.825,365.499,317.825z      "
                        id="path8"/>
			</g>
		</g>
	</g>
</g>
    <g
            id="g18"
            style="fill:#e59728">
</g>
    <g
            id="g20"
            style="fill:#e59728">
</g>
    <g
            id="g22"
            style="fill:#e59728">
</g>
    <g
            id="g24"
            style="fill:#e59728">
</g>
    <g
            id="g26"
            style="fill:#e59728">
</g>
    <g
            id="g28"
            style="fill:#e59728">
</g>
    <g
            id="g30"
            style="fill:#e59728">
</g>
    <g
            id="g32"
            style="fill:#e59728">
</g>
    <g
            id="g34"
            style="fill:#e59728">
</g>
    <g
            id="g36"
            style="fill:#e59728">
</g>
    <g
            id="g38"
            style="fill:#e59728">
</g>
    <g
            id="g40"
            style="fill:#e59728">
</g>
    <g
            id="g42"
            style="fill:#e59728">
</g>
    <g
            id="g44"
            style="fill:#e59728">
</g>
    <g
            id="g46"
            style="fill:#e59728">
</g>
</svg>
